<svg xmlns="http://www.w3.org/2000/svg" width="14.461" height="14.35" viewBox="0 0 14.461 14.35">
  <path id="Path_137" data-name="Path 137" d="M10.448,3.294V0H4.014V3.294H0V14.35H5.657V11.316a.19.19,0,0,1,.19-.19H8.614a.19.19,0,0,1,.19.19V14.35h5.657V3.294ZM3.016,12.871a.19.19,0,0,1-.19.19H1.232a.19.19,0,0,1-.19-.19V11.277a.19.19,0,0,1,.19-.19H2.826a.19.19,0,0,1,.19.19Zm0-3.256a.19.19,0,0,1-.19.19H1.232a.19.19,0,0,1-.19-.19V8.022a.19.19,0,0,1,.19-.19H2.826a.19.19,0,0,1,.19.19Zm0-3.256a.19.19,0,0,1-.19.19H1.232a.19.19,0,0,1-.19-.19V4.766a.19.19,0,0,1,.19-.19H2.826a.19.19,0,0,1,.19.19ZM8.222,9.6a.19.19,0,0,1-.19.19H6.438a.19.19,0,0,1-.19-.19V8a.19.19,0,0,1,.19-.19H8.032a.19.19,0,0,1,.19.19Zm0-3.256a.19.19,0,0,1-.19.19H6.438a.19.19,0,0,1-.19-.19V4.747a.19.19,0,0,1,.19-.19H8.032a.19.19,0,0,1,.19.19Zm0-3.256a.19.19,0,0,1-.19.19H6.438a.19.19,0,0,1-.19-.19V1.491a.19.19,0,0,1,.19-.19H8.032a.19.19,0,0,1,.19.19Zm5.2,9.787a.19.19,0,0,1-.19.19H11.635a.19.19,0,0,1-.19-.19V11.277a.19.19,0,0,1,.19-.19h1.594a.19.19,0,0,1,.19.19Zm0-3.255a.19.19,0,0,1-.19.19H11.635a.19.19,0,0,1-.19-.19V8.022a.19.19,0,0,1,.19-.19h1.594a.19.19,0,0,1,.19.19Zm0-3.256a.19.19,0,0,1-.19.19H11.635a.19.19,0,0,1-.19-.19V4.766a.19.19,0,0,1,.19-.19h1.594a.19.19,0,0,1,.19.19Z" fill="#6ebfac"/>
</svg>
