<svg xmlns="http://www.w3.org/2000/svg" width="268" height="83.289" viewBox="0 0 268 83.289">
  <g id="Group_11205" data-name="Group 11205" transform="translate(-84 -241)">
    <g id="Group_9901" data-name="Group 9901" transform="translate(-1366.017 12.696)">
      <path id="Path_1" data-name="Path 1" d="M3.152,73.61a.793.793,0,0,1,.865-.774.779.779,0,1,1,0,1.549.785.785,0,0,1-.865-.775m.169,3.408H2.855a1.256,1.256,0,1,0,0,2.482h.467ZM1.1,73.61a.793.793,0,0,1,.865-.774.779.779,0,1,1,0,1.549A.785.785,0,0,1,1.1,73.61m2.224,1.441H4.83v5.939H2.994A2.7,2.7,0,0,1,.006,78.278c0-1.659,1.261-2.752,3.187-2.752h.128Z" transform="translate(1561.003 198.245)" fill="#231f20"/>
      <path id="Path_2" data-name="Path 2" d="M7.5,80.017H6.46c-.119,1.629-.833,2.1-2.153,2.1a3.488,3.488,0,0,1-.8-.089l-.15-1.29c.329.019.547.03.805.03.476,0,.824-.249.824-.974V74.554H6.49v3.962H7.513v1.491Z" transform="translate(1562.898 199.217)" fill="#231f20"/>
      <rect id="Rectangle_1" data-name="Rectangle 1" width="1.677" height="1.489" transform="translate(1570.212 277.744)" fill="#231f20"/>
      <rect id="Rectangle_2" data-name="Rectangle 2" width="1.677" height="1.489" transform="translate(1571.692 277.744)" fill="#231f20"/>
      <rect id="Rectangle_3" data-name="Rectangle 3" width="1.677" height="1.489" transform="translate(1573.18 277.744)" fill="#231f20"/>
      <rect id="Rectangle_4" data-name="Rectangle 4" width="1.677" height="1.489" transform="translate(1574.66 277.744)" fill="#231f20"/>
      <rect id="Rectangle_5" data-name="Rectangle 5" width="1.677" height="1.489" transform="translate(1576.148 277.744)" fill="#231f20"/>
      <rect id="Rectangle_6" data-name="Rectangle 6" width="1.677" height="1.489" transform="translate(1577.628 277.744)" fill="#231f20"/>
      <rect id="Rectangle_7" data-name="Rectangle 7" width="1.677" height="1.489" transform="translate(1579.117 277.744)" fill="#231f20"/>
      <rect id="Rectangle_8" data-name="Rectangle 8" width="1.677" height="1.489" transform="translate(1580.605 277.744)" fill="#231f20"/>
      <path id="Path_3" data-name="Path 3" d="M23.311,74.529V77.26c0,1.908-.824,2.86-2.631,2.86a2.185,2.185,0,0,1-1.984-.993,2.431,2.431,0,0,1-2.036.894h-3.2V78.532h1.092V75.224h1.51v3.308h.606a1.243,1.243,0,0,0,1.4-1.272V75.224h1.5v2.244a1.06,1.06,0,0,0,1.123,1.162,1.077,1.077,0,0,0,1.131-1.212v-2.89h1.489Z" transform="translate(1568.622 199.203)" fill="#231f20"/>
      <path id="Path_4" data-name="Path 4" d="M21.319,74.476h1.5v4.836h-1.5Zm-.089-1.341a.988.988,0,0,1,1.121-1.023h.338v.636h-.377a.253.253,0,0,0-.258.268v.1h.883v.725H21.23v-.7Zm-1.023,6.774H23c.894,0,1.4-.437,1.4-1.231V72.987H25.9v5.572c0,1.9-1,2.839-3.078,2.839H20.5Z" transform="translate(1572.44 197.835)" fill="#231f20"/>
      <rect id="Rectangle_9" data-name="Rectangle 9" width="1.508" height="7.718" transform="translate(1599.834 271.517)" fill="#231f20"/>
      <path id="Path_5" data-name="Path 5" d="M33.277,73.794a.868.868,0,1,1,.861.775.784.784,0,0,1-.861-.775m.257,3.118h-.467a1.257,1.257,0,1,0,0,2.484h.467ZM31.22,73.794a.869.869,0,1,1,.863.775.785.785,0,0,1-.863-.775m3.823,1.629v7.558h-4.42c-2.063,0-3.078-1-3.078-3V78.045h1.51v1.789c0,1.2.774,1.659,1.9,1.659h2.589v-.844h-.337c-1.789,0-2.99-.874-2.99-2.464,0-1.659,1.261-2.752,3.187-2.752h1.64Z" transform="translate(1576.596 198.348)" fill="#231f20"/>
      <path id="Path_6" data-name="Path 6" d="M36.266,79.342v1.489H33.188V73.115h1.5v6.227Z" transform="translate(1579.79 198.403)" fill="#231f20"/>
      <rect id="Rectangle_10" data-name="Rectangle 10" width="1.677" height="1.489" transform="translate(1615.867 277.744)" fill="#231f20"/>
      <rect id="Rectangle_11" data-name="Rectangle 11" width="1.677" height="1.489" transform="translate(1617.346 277.744)" fill="#231f20"/>
      <rect id="Rectangle_12" data-name="Rectangle 12" width="1.677" height="1.489" transform="translate(1618.835 277.744)" fill="#231f20"/>
      <rect id="Rectangle_13" data-name="Rectangle 13" width="1.677" height="1.489" transform="translate(1620.325 277.744)" fill="#231f20"/>
      <rect id="Rectangle_14" data-name="Rectangle 14" width="1.677" height="1.489" transform="translate(1621.803 277.744)" fill="#231f20"/>
      <rect id="Rectangle_15" data-name="Rectangle 15" width="1.677" height="1.489" transform="translate(1623.292 277.744)" fill="#231f20"/>
      <rect id="Rectangle_16" data-name="Rectangle 16" width="1.677" height="1.489" transform="translate(1624.771 277.744)" fill="#231f20"/>
      <rect id="Rectangle_17" data-name="Rectangle 17" width="1.677" height="1.489" transform="translate(1626.26 277.744)" fill="#231f20"/>
      <rect id="Rectangle_18" data-name="Rectangle 18" width="1.677" height="1.489" transform="translate(1627.74 277.744)" fill="#231f20"/>
      <path id="Path_7" data-name="Path 7" d="M46.7,73.763a.879.879,0,0,1,1.746,0,.878.878,0,0,1-1.746,0m.973,5.651V76.932H47.21a1.256,1.256,0,1,0,0,2.482Zm2.581,0V80.9h-6.7V79.414h1.051a2.884,2.884,0,0,1-.268-1.222c0-1.659,1.261-2.752,3.187-2.752h1.638V79.4h1.082Z" transform="translate(1585.661 198.331)" fill="#231f20"/>
      <path id="Path_8" data-name="Path 8" d="M48.51,73.763a.88.88,0,0,1,1.748,0,.879.879,0,0,1-1.748,0m-.794,5.651h.893V75.452h1.5v5.463H47.716v-1.5Z" transform="translate(1588.015 198.331)" fill="#231f20"/>
      <path id="Path_9" data-name="Path 9" d="M50.156,73.115h1.508v7.718H50.156Zm-.139,9.327a.991.991,0,0,1,1.121-1.034h.417v.647H51.1a.25.25,0,0,0-.258.258v.1H51.8v.735H50.017v-.7Z" transform="translate(1589.318 198.403)" fill="#231f20"/>
      <path id="Path_10" data-name="Path 10" d="M55.163,76.043H54.7a1.257,1.257,0,1,0,0,2.484h.467Zm1.508-1.489v4.927c0,2.025-.814,2.622-2.522,2.622a6.819,6.819,0,0,1-1.3-.119l-.327-1.59a5.939,5.939,0,0,0,1.558.218c.556,0,.963-.119,1.062-.6h-.318a2.7,2.7,0,0,1-2.988-2.711c0-1.659,1.261-2.752,3.187-2.752h1.648Z" transform="translate(1590.348 199.217)" fill="#231f20"/>
      <path id="Path_11" data-name="Path 11" d="M63.223,80.828H62.141V82.02H59.7c-1.977,0-3.078-1.063-3.078-2.94V76.031h1.519V78.9c0,1.162.714,1.629,1.8,1.629h.7v-7.41h1.5v6.218h1.082Z" transform="translate(1593.057 198.406)" fill="#231f20"/>
      <rect id="Rectangle_19" data-name="Rectangle 19" width="1.677" height="1.489" transform="translate(1656.082 277.744)" fill="#231f20"/>
      <rect id="Rectangle_20" data-name="Rectangle 20" width="1.677" height="1.489" transform="translate(1657.571 277.744)" fill="#231f20"/>
      <rect id="Rectangle_21" data-name="Rectangle 21" width="1.677" height="1.489" transform="translate(1659.05 277.744)" fill="#231f20"/>
      <rect id="Rectangle_22" data-name="Rectangle 22" width="1.677" height="1.489" transform="translate(1660.539 277.744)" fill="#231f20"/>
      <rect id="Rectangle_23" data-name="Rectangle 23" width="1.677" height="1.489" transform="translate(1662.018 277.744)" fill="#231f20"/>
      <rect id="Rectangle_24" data-name="Rectangle 24" width="1.677" height="1.489" transform="translate(1663.507 277.744)" fill="#231f20"/>
      <rect id="Rectangle_25" data-name="Rectangle 25" width="1.677" height="1.489" transform="translate(1664.985 277.744)" fill="#231f20"/>
      <rect id="Rectangle_26" data-name="Rectangle 26" width="1.677" height="1.489" transform="translate(1666.475 277.744)" fill="#231f20"/>
      <rect id="Rectangle_27" data-name="Rectangle 27" width="1.677" height="1.489" transform="translate(1667.955 277.744)" fill="#231f20"/>
      <path id="Path_12" data-name="Path 12" d="M70.935,73.617a.879.879,0,0,1,1.746,0,.878.878,0,0,1-1.746,0m3.613,4.738a9.95,9.95,0,0,1-.437,2.622H69.247V79.487H72.97a4.9,4.9,0,0,0,.16-1.212,1.379,1.379,0,0,0-1.469-1.5,2.489,2.489,0,0,0-1.471.456l-.536-1.359a4.6,4.6,0,0,1,2.1-.587c1.836,0,2.789,1.173,2.789,3.07" transform="translate(1600.205 198.248)" fill="#231f20"/>
      <path id="Path_13" data-name="Path 13" d="M73.057,78.523h3.306V77.252a1.047,1.047,0,0,0-1.162-1.2h-.446V74.561h.229c1.936,0,2.8.973,2.8,2.839v2.612H73.057Z" transform="translate(1602.362 199.221)" fill="#231f20"/>
      <path id="Path_14" data-name="Path 14" d="M84.108,78.613V80.1H80.6a1.009,1.009,0,0,0-1.1.805L78.937,82.3l-1.361-.526.656-1.6A2.088,2.088,0,0,1,80.486,78.6h1.181a4.988,4.988,0,0,0,.158-1.212,1.38,1.38,0,0,0-1.469-1.5,2.479,2.479,0,0,0-1.469.457l-.536-1.361a4.588,4.588,0,0,1,2.094-.586c1.837,0,2.789,1.171,2.789,3.07a7.392,7.392,0,0,1-.1,1.132H84.1Z" transform="translate(1604.921 199.131)" fill="#231f20"/>
      <rect id="Rectangle_28" data-name="Rectangle 28" width="1.677" height="1.489" transform="translate(1688.841 277.744)" fill="#231f20"/>
      <rect id="Rectangle_29" data-name="Rectangle 29" width="1.677" height="1.489" transform="translate(1690.32 277.744)" fill="#231f20"/>
      <rect id="Rectangle_30" data-name="Rectangle 30" width="1.677" height="1.489" transform="translate(1691.809 277.744)" fill="#231f20"/>
      <rect id="Rectangle_31" data-name="Rectangle 31" width="1.677" height="1.489" transform="translate(1693.288 277.744)" fill="#231f20"/>
      <rect id="Rectangle_32" data-name="Rectangle 32" width="1.677" height="1.489" transform="translate(1694.777 277.744)" fill="#231f20"/>
      <rect id="Rectangle_33" data-name="Rectangle 33" width="1.677" height="1.489" transform="translate(1696.257 277.744)" fill="#231f20"/>
      <rect id="Rectangle_34" data-name="Rectangle 34" width="1.677" height="1.489" transform="translate(1697.745 277.744)" fill="#231f20"/>
      <rect id="Rectangle_35" data-name="Rectangle 35" width="1.677" height="1.489" transform="translate(1699.225 277.744)" fill="#231f20"/>
      <path id="Path_15" data-name="Path 15" d="M100.425,78.538v1.489a2.175,2.175,0,0,1-1.867-.794,2.436,2.436,0,0,1-2.133.894,2.167,2.167,0,0,1-1.986-.993,2.416,2.416,0,0,1-2.034.893h-3.2V78.538H90.3V75.23h1.5v3.308H92.4a1.243,1.243,0,0,0,1.4-1.272V75.23h1.5v2.244a1.06,1.06,0,0,0,1.123,1.162,1.076,1.076,0,0,0,1.131-1.211V74.535h1.51v2.592c0,.984.456,1.421,1.369,1.421" transform="translate(1611.506 199.207)" fill="#231f20"/>
      <path id="Path_16" data-name="Path 16" d="M101,77.913a1.282,1.282,0,0,0-1.259-1.45h-.011a1.454,1.454,0,0,0,0,2.89h.011A1.269,1.269,0,0,0,101,77.923Zm1.51.039a2.673,2.673,0,0,1-2.769,2.88h-.011a2.662,2.662,0,0,1-2.243-1.052H96.249V78.291h.7v-.329a2.731,2.731,0,0,1,2.791-2.99h.009a2.723,2.723,0,0,1,2.769,2.98" transform="translate(1615.493 199.454)" fill="#231f20"/>
      <path id="Path_17" data-name="Path 17" d="M0,83.281H1.162v2.363h2.6V83.281H4.924v5.95H3.762V86.737h-2.6v2.493H0Z" transform="translate(1561 204.158)" fill="#231f20"/>
      <path id="Path_18" data-name="Path 18" d="M6.073,87.7a1.122,1.122,0,0,0,1.171-1.153,1.141,1.141,0,0,0-1.171-1.182,1.168,1.168,0,1,0,0,2.335M3.721,86.548a2.244,2.244,0,0,1,2.334-2.265,2.248,2.248,0,1,1,0,4.49,2.218,2.218,0,0,1-2.334-2.226" transform="translate(1563.107 204.725)" fill="#231f20"/>
      <path id="Path_19" data-name="Path 19" d="M11.16,88.482a13.644,13.644,0,0,1-1.975.229c-1.162,0-1.966-.437-1.966-1.64V84.39H8.391v2.454c0,.556.287.725.843.725a4.213,4.213,0,0,0,.745-.07V84.39h1.171v4.092Z" transform="translate(1565.088 204.786)" fill="#231f20"/>
      <path id="Path_20" data-name="Path 20" d="M10.233,88.385l.307-.894a3.892,3.892,0,0,0,1.441.309c.506,0,.843-.06.843-.338,0-.247-.128-.3-.753-.457-.13-.03-.258-.069-.388-.1-.893-.218-1.32-.666-1.32-1.37,0-.764.626-1.251,1.727-1.251a3.965,3.965,0,0,1,1.738.366l-.329.894a3.017,3.017,0,0,0-1.261-.3c-.426,0-.675.069-.675.3,0,.249.219.3.7.418l.3.069c.973.249,1.389.7,1.389,1.361,0,.913-.616,1.37-1.876,1.37a4.523,4.523,0,0,1-1.856-.377" transform="translate(1566.789 204.725)" fill="#231f20"/>
      <path id="Path_21" data-name="Path 21" d="M14.121,85.981h1.925c-.069-.437-.417-.684-.962-.684a.882.882,0,0,0-.963.684m3.057.984H14.13a1.073,1.073,0,0,0,1.121.775,2.707,2.707,0,0,0,1.261-.3l.487.894a3.836,3.836,0,0,1-1.837.418A2.124,2.124,0,0,1,12.9,86.518a2.1,2.1,0,0,1,2.194-2.235,1.959,1.959,0,0,1,2.075,2.146v.545" transform="translate(1568.303 204.725)" fill="#231f20"/>
      <path id="Path_22" data-name="Path 22" d="M20.084,86.518v2.711H18.913V86.747c0-.537-.3-.725-.854-.725a4.416,4.416,0,0,0-.744.069v3.139H16.144V83.281h1.171v1.668c.316-.03.6-.05.794-.05,1.052,0,1.966.359,1.966,1.629" transform="translate(1570.14 204.158)" fill="#231f20"/>
      <path id="Path_23" data-name="Path 23" d="M21.524,87.7a1.121,1.121,0,0,0,1.17-1.153,1.171,1.171,0,1,0-2.341-.009A1.124,1.124,0,0,0,21.524,87.7m-2.363-1.153a2.243,2.243,0,0,1,2.334-2.265,2.248,2.248,0,1,1,0,4.49,2.217,2.217,0,0,1-2.334-2.226" transform="translate(1571.848 204.725)" fill="#231f20"/>
      <rect id="Rectangle_36" data-name="Rectangle 36" width="1.171" height="5.95" transform="translate(1596.45 287.439)" fill="#231f20"/>
      <path id="Path_24" data-name="Path 24" d="M26.885,88.31V86.066a3.71,3.71,0,0,0-.7-.08,1.182,1.182,0,1,0,.009,2.363,4.379,4.379,0,0,0,.7-.039m1.171-5.026v5.8a6.315,6.315,0,0,1-1.837.318,2.237,2.237,0,1,1,0-4.47c.208,0,.428.019.666.039v-1.7h1.171Z" transform="translate(1574.518 204.155)" fill="#231f20"/>
      <path id="Path_25" data-name="Path 25" d="M69.923,88.31V86.066a3.7,3.7,0,0,0-.7-.08,1.182,1.182,0,1,0,.009,2.363,4.379,4.379,0,0,0,.7-.039m1.171-5.026v5.8a6.315,6.315,0,0,1-1.837.318,2.237,2.237,0,1,1,0-4.47c.21,0,.428.019.666.039v-1.7h1.171Z" transform="translate(1598.885 204.155)" fill="#231f20"/>
      <rect id="Rectangle_37" data-name="Rectangle 37" width="1.162" height="5.95" transform="translate(1605.077 287.439)" fill="#231f20"/>
      <path id="Path_26" data-name="Path 26" d="M29.686,84.523a14.628,14.628,0,0,1,1.966-.208c1.052,0,1.966.357,1.966,1.629v2.711H32.446V86.172c0-.537-.3-.725-.844-.725a4.359,4.359,0,0,0-.753.069v3.139H29.677V84.533Z" transform="translate(1577.802 204.744)" fill="#231f20"/>
      <path id="Path_27" data-name="Path 27" d="M32.719,86.518a2.151,2.151,0,0,1,2.3-2.235A3.372,3.372,0,0,1,36.5,84.6l-.457.974a2.343,2.343,0,0,0-1-.21,1.153,1.153,0,0,0,.011,2.305,2.053,2.053,0,0,0,1-.229l.446.984a3.411,3.411,0,0,1-1.478.327,2.11,2.11,0,0,1-2.3-2.235" transform="translate(1579.524 204.725)" fill="#231f20"/>
      <path id="Path_28" data-name="Path 28" d="M37.656,87.7a1.121,1.121,0,0,0,1.17-1.153,1.139,1.139,0,0,0-1.17-1.182,1.168,1.168,0,1,0,0,2.335m-2.363-1.153a2.351,2.351,0,1,1,2.334,2.226,2.218,2.218,0,0,1-2.334-2.226" transform="translate(1580.981 204.725)" fill="#231f20"/>
      <path id="Path_29" data-name="Path 29" d="M43.859,88.648V86.165c0-.439-.149-.725-.735-.725a1.543,1.543,0,0,0-.655.179,2.747,2.747,0,0,1,.03.407v2.622H41.328V86.165c0-.528-.288-.725-.745-.725a4.167,4.167,0,0,0-.645.069v3.139H38.766V84.526a13.125,13.125,0,0,1,1.857-.218,2.244,2.244,0,0,1,1.25.318,2.9,2.9,0,0,1,1.291-.318c1.082,0,1.867.426,1.867,1.638v2.7H43.859Z" transform="translate(1582.948 204.74)" fill="#231f20"/>
      <path id="Path_30" data-name="Path 30" d="M44.488,85.981h1.925c-.069-.437-.417-.684-.962-.684a.882.882,0,0,0-.963.684m3.057.984H44.5a1.072,1.072,0,0,0,1.121.775,2.707,2.707,0,0,0,1.261-.3l.487.894a3.864,3.864,0,0,1-1.837.418,2.124,2.124,0,0,1-2.263-2.235,2.1,2.1,0,0,1,2.194-2.235,1.959,1.959,0,0,1,2.075,2.146v.545" transform="translate(1585.496 204.725)" fill="#231f20"/>
      <path id="Path_31" data-name="Path 31" d="M49.091,84.6a1.515,1.515,0,0,0,.487.954c.794-.348.922-.606.922-.933,0-.368-.229-.606-.675-.606s-.744.238-.744.576Zm.327,3.785a1.659,1.659,0,0,0,1-.359L49.1,86.588c-.525.268-.764.556-.764.963,0,.5.407.835,1.073.835m2.144.883-.476-.526a2.894,2.894,0,0,1-1.817.625c-1.291,0-2.114-.684-2.114-1.718v-.019c0-.706.456-1.192,1.43-1.64a2.154,2.154,0,0,1-.586-1.45c0-.774.7-1.33,1.756-1.33s1.7.536,1.7,1.35c0,.586-.257,1.093-1.32,1.59L51.166,87.3a3.951,3.951,0,0,0,.4-1.311h1.052a4.7,4.7,0,0,1-.785,2.036l1.123,1.233h-1.41Z" transform="translate(1587.692 204.119)" fill="#231f20"/>
      <path id="Path_32" data-name="Path 32" d="M52.172,83.281h3.753v1.073h-2.59v1.291h2.341v1.073H53.334v1.43h2.611v1.084H52.172Z" transform="translate(1590.538 204.158)" fill="#231f20"/>
      <path id="Path_33" data-name="Path 33" d="M57.781,88.6l-.863-1.471L56.063,88.6h-1.35l1.421-2.166-1.35-2.045h1.309l.814,1.4.805-1.4h1.33L57.7,86.456l1.41,2.146Z" transform="translate(1591.977 204.786)" fill="#231f20"/>
      <path id="Path_34" data-name="Path 34" d="M61.016,86.559a1.092,1.092,0,0,0-1.182-1.171,3.832,3.832,0,0,0-.7.078v2.246a4.389,4.389,0,0,0,.7.039,1.1,1.1,0,0,0,1.192-1.182Zm1.121,0A2.119,2.119,0,0,1,59.795,88.8a3.887,3.887,0,0,1-.666-.049v1.5h-1.17v-5.71h.277a6.9,6.9,0,0,1,1.558-.21,2.114,2.114,0,0,1,2.343,2.226" transform="translate(1593.814 204.754)" fill="#231f20"/>
      <path id="Path_35" data-name="Path 35" d="M62.115,85.981h1.925c-.069-.437-.417-.684-.962-.684a.882.882,0,0,0-.963.684m3.057.984H62.124a1.073,1.073,0,0,0,1.121.775,2.707,2.707,0,0,0,1.261-.3l.487.894a3.864,3.864,0,0,1-1.837.418,2.124,2.124,0,0,1-2.263-2.235,2.1,2.1,0,0,1,2.194-2.235,1.959,1.959,0,0,1,2.075,2.146v.545" transform="translate(1595.475 204.725)" fill="#231f20"/>
      <path id="Path_36" data-name="Path 36" d="M64.148,84.523a14.628,14.628,0,0,1,1.966-.208c1.052,0,1.966.357,1.966,1.629v2.711H66.908V86.172c0-.537-.3-.725-.844-.725a4.359,4.359,0,0,0-.753.069v3.139H64.139V84.533Z" transform="translate(1597.313 204.744)" fill="#231f20"/>
      <path id="Path_37" data-name="Path 37" d="M70.008,85.011h1.171v4.211H70.008Zm-.069-1.142a.658.658,0,1,1,.655.6.6.6,0,0,1-.655-.6" transform="translate(1600.597 204.165)" fill="#231f20"/>
      <path id="Path_38" data-name="Path 38" d="M71.929,87.8V85.978h-.735V84.926h.735v-1.5H73.08v1.5h1.549v1.052H73.08v1.471c0,.476.229.636.725.636h.824v1.062H73.368c-1.071,0-1.449-.426-1.449-1.35" transform="translate(1601.307 204.241)" fill="#231f20"/>
      <path id="Path_39" data-name="Path 39" d="M77.866,88.482a13.644,13.644,0,0,1-1.975.229c-1.162,0-1.966-.437-1.966-1.64V84.39H75.1v2.454c0,.556.287.725.843.725a4.2,4.2,0,0,0,.746-.07V84.39h1.171v4.092Z" transform="translate(1602.854 204.786)" fill="#231f20"/>
      <path id="Path_40" data-name="Path 40" d="M77.146,84.57a8.025,8.025,0,0,1,1.757-.179H79.7v1.073h-.655a2.973,2.973,0,0,0-.746.069v3.079H77.126V84.579Z" transform="translate(1604.666 204.787)" fill="#231f20"/>
      <path id="Path_41" data-name="Path 41" d="M80.246,85.981h1.926c-.07-.437-.417-.684-.963-.684a.882.882,0,0,0-.963.684m3.048.984H80.246a1.073,1.073,0,0,0,1.121.775,2.7,2.7,0,0,0,1.261-.3l.487.894a3.864,3.864,0,0,1-1.837.418,2.124,2.124,0,0,1-2.263-2.235,2.1,2.1,0,0,1,2.194-2.235,1.959,1.959,0,0,1,2.075,2.146v.545" transform="translate(1605.735 204.725)" fill="#231f20"/>
      <path id="Path_42" data-name="Path 42" d="M82.964,88.813l.446-.963a3.184,3.184,0,0,0,1.727.476c.794,0,1.2-.277,1.2-.714,0-.4-.3-.576-1.082-.814l-.536-.15c-1.082-.3-1.569-.844-1.569-1.767,0-1,.814-1.67,2.175-1.67a4.031,4.031,0,0,1,2.064.517l-.446.963a3.006,3.006,0,0,0-1.608-.446c-.7,0-1.013.247-1.013.606,0,.437.269.6.825.774.158.041.387.11.565.16,1.291.357,1.806.894,1.806,1.807,0,1.132-.893,1.778-2.332,1.778a4.251,4.251,0,0,1-2.215-.547" transform="translate(1607.971 204.119)" fill="#231f20"/>
      <path id="Path_43" data-name="Path 43" d="M90.346,88.482a13.644,13.644,0,0,1-1.975.229c-1.162,0-1.966-.437-1.966-1.64V84.39h1.171v2.454c0,.556.287.725.843.725a4.213,4.213,0,0,0,.745-.07V84.39h1.172v4.092Z" transform="translate(1609.92 204.786)" fill="#231f20"/>
      <path id="Path_44" data-name="Path 44" d="M89.627,84.57a8.025,8.025,0,0,1,1.757-.179h.794v1.073h-.655a2.973,2.973,0,0,0-.745.069v3.079H89.607V84.579Z" transform="translate(1611.732 204.787)" fill="#231f20"/>
      <path id="Path_45" data-name="Path 45" d="M95.9,84.39,94.532,88.6H92.994L91.6,84.39h1.242l.922,3.129.9-3.129Z" transform="translate(1612.862 204.786)" fill="#231f20"/>
      <path id="Path_46" data-name="Path 46" d="M95.769,85.981H97.7c-.07-.437-.417-.684-.963-.684a.882.882,0,0,0-.963.684m3.048.984H95.769a1.073,1.073,0,0,0,1.121.775,2.7,2.7,0,0,0,1.261-.3l.487.894a3.864,3.864,0,0,1-1.837.418,2.124,2.124,0,0,1-2.263-2.235,2.1,2.1,0,0,1,2.194-2.235,1.959,1.959,0,0,1,2.075,2.146v.545" transform="translate(1614.524 204.725)" fill="#231f20"/>
      <path id="Path_47" data-name="Path 47" d="M101.6,88.09v.576c0,1.092-.5,1.608-1.966,1.608a7.439,7.439,0,0,1-1.519-.188l-.277-1.063a6.533,6.533,0,0,0,1.638.238c.753,0,.991-.138.991-.714v-.16a4.726,4.726,0,0,1-.8.06c-1.162,0-1.867-.437-1.867-1.638V84.384h1.171v2.205c0,.537.249.736.755.736a3.138,3.138,0,0,0,.755-.07V84.384h1.131v3.655l.041.03h-.041Z" transform="translate(1616.368 204.783)" fill="#231f20"/>
    </g>
    <g id="Group_9902" data-name="Group 9902" transform="translate(-1646.414 23)">
      <path id="Path_48" data-name="Path 48" d="M26.089,64.451H37.306V45.391L66.927,14.666,97.838,45.884l.637,37.057H107.6V42.6L66.85,1.021,26.089,41.982Z" transform="translate(1721.812 218.306)" fill="#dcae21"/>
      <path id="Path_49" data-name="Path 49" d="M66.959,58.559h8.089l.4,15.363H84.1V55.193L71.207,42.287,58.071,55.193v28.1H13.044V33.309L45.5,0,51.7,7.014,22.655,37.466,22.23,73.624l26.342.221v-21.7L71.122,29.143,93.759,51.494v31.8H66.432Z" transform="translate(1717.37 218)" fill="#e8c97a"/>
    </g>
  </g>
</svg>
