<svg width="274" height="274" viewBox="0 0 274 274" fill="none" xmlns="http://www.w3.org/2000/svg">
<path d="M170.94 136.999L265.94 41.9987C270.449 37.4979 272.985 31.3905 272.99 25.0199C272.996 18.6493 270.471 12.5373 265.97 8.02866C261.469 3.51998 255.362 0.983875 248.991 0.978249C242.621 0.972623 236.509 3.49794 232 7.99866L137 102.999L42 7.99866C37.4913 3.48998 31.3762 0.957031 25 0.957031C18.6238 0.957031 12.5087 3.48998 8.00001 7.99866C3.49133 12.5073 0.958374 18.6224 0.958374 24.9987C0.958374 31.3749 3.49133 37.49 8.00001 41.9987L103 136.999L8.00001 231.999C3.49133 236.507 0.958374 242.622 0.958374 248.999C0.958374 255.375 3.49133 261.49 8.00001 265.999C12.5087 270.507 18.6238 273.04 25 273.04C31.3762 273.04 37.4913 270.507 42 265.999L137 170.999L232 265.999C236.509 270.507 242.624 273.04 249 273.04C255.376 273.04 261.491 270.507 266 265.999C270.509 261.49 273.042 255.375 273.042 248.999C273.042 242.622 270.509 236.507 266 231.999L170.94 136.999Z" fill="black"/>
</svg>
