<svg xmlns="http://www.w3.org/2000/svg" width="8.926" height="7.77" viewBox="0 0 8.926 7.77">
  <path id="Path_20779" data-name="Path 20779" d="M8.926,3.465v.25a1.137,1.137,0,0,0-.22-.163A.8.8,0,0,0,8.559,3.5H7.751v.765a.936.936,0,0,1,.155.008c.272.01.459-.051.7.122a.829.829,0,0,1,.307.489l.017.184v.182c-.058-.015-.1-.075-.145-.109a.687.687,0,0,0-.443-.087,5.927,5.927,0,0,0-.66-.008.077.077,0,0,0-.037.008l-.01.012A3.221,3.221,0,0,1,5.585,7.442a8.507,8.507,0,0,1-3.107.32c-.013,0-.034,0-.042.008H.791a.532.532,0,0,1,.075-.1,1.946,1.946,0,0,0,.3-.976V5.057c-.115,0-.23,0-.345,0a1.091,1.091,0,0,1-.324-.04.793.793,0,0,1-.483-.646L0,4.056a1.277,1.277,0,0,0,.207.16,1.027,1.027,0,0,0,.448.06c.168,0,.337,0,.5,0V3.5c-.174-.011-.354,0-.527-.007A.771.771,0,0,1,0,2.681a.988.988,0,0,1,0-.144c0-.01.007-.022.019-.019a.617.617,0,0,0,.394.2l.747.007V1.165A1.9,1.9,0,0,0,.791.021C.852.021.917.011.977.009c1-.029,2.01.018,3.01.008A3.853,3.853,0,0,1,7.193,1.655a3.728,3.728,0,0,1,.44,1.061.759.759,0,0,0,.175.006c.155.006.315,0,.47.008a.733.733,0,0,1,.64.717ZM6.311,2.723A2.736,2.736,0,0,0,5.328.89C4.475.262,3.355.42,2.357.4L2.33.408V2.723Zm.083.781H2.357s-.017.012-.027.008v.758l4.064.008ZM2.33,7.376H3.608A3.141,3.141,0,0,0,5.29,6.882a2.6,2.6,0,0,0,.98-1.62A.691.691,0,0,0,6.3,5.056c-.006-.008-.015-.006-.023-.007a4.854,4.854,0,0,0-.553.008c-1.131.009-2.262-.008-3.393,0Z" transform="translate(0 0)" fill="#666"/>
</svg>
