<svg xmlns="http://www.w3.org/2000/svg" width="23.58" height="8.797" viewBox="0 0 23.58 8.797">
  <g id="Group_62" data-name="Group 62" transform="translate(-1593 -92.5)">
    <path id="Path_6" data-name="Path 6" d="M23.387,3.288a.966.966,0,0,0-.639-.441c-1.377-.2-3.2-1.323-4.032-1.519C16.9.887,12.323.1,10.6.74A21.854,21.854,0,0,0,6.618,2.847a25.579,25.579,0,0,0-4.77.98,1.761,1.761,0,0,0-.492.343A3.216,3.216,0,0,0,.521,6.816,1.483,1.483,0,0,0,2,8.09a2.763,2.763,0,0,1-.148-.882,3.049,3.049,0,0,1,6.1,0A2.552,2.552,0,0,1,7.8,8.09h8.7a2.763,2.763,0,0,1-.148-.882,3.049,3.049,0,0,1,6.1,0,3.791,3.791,0,0,1-.1.784,5.088,5.088,0,0,0,1.18-.441.953.953,0,0,0,.442-.686A5.092,5.092,0,0,0,23.387,3.288ZM12.815,3.043,8.438,3.19l-.344-.1a17.14,17.14,0,0,1,2.852-1.421c.049,0,.1-.049.148-.049a9.853,9.853,0,0,1,1.721-.1Zm5.212-.2L13.8,2.994V1.573a23.656,23.656,0,0,1,4.524.686Z" transform="translate(1592.501 92)" fill="#31a8c4"/>
    <path id="Path_7" data-name="Path 7" d="M8.292,17.883A2.113,2.113,0,1,1,10.405,20,2.126,2.126,0,0,1,8.292,17.883Z" transform="translate(1587.145 81.302)" fill="#31a8c4"/>
    <path id="Path_8" data-name="Path 8" d="M60.15,17.883a2.113,2.113,0,1,1-2.113-2.113A2.126,2.126,0,0,1,60.15,17.883Z" transform="translate(1553.861 81.302)" fill="#31a8c4"/>
  </g>
</svg>
