<svg width="33" height="31" viewBox="0 0 33 31" fill="none" xmlns="http://www.w3.org/2000/svg">
<path d="M9.693 0.75H4C2.20507 0.75 0.75 2.20507 0.75 4V9.693C0.75 11.4879 2.20507 12.943 4 12.943H9.693C11.4879 12.943 12.943 11.4879 12.943 9.693V4C12.943 2.20507 11.4879 0.75 9.693 0.75Z" stroke="black" stroke-width="1.5"/>
<path d="M9.693 17.8672H4C2.20507 17.8672 0.75 19.3223 0.75 21.1172V26.8102C0.75 28.6051 2.20507 30.0602 4 30.0602H9.693C11.4879 30.0602 12.943 28.6051 12.943 26.8102V21.1172C12.943 19.3223 11.4879 17.8672 9.693 17.8672Z" stroke="black" stroke-width="1.5"/>
<path d="M28.5192 0.75H22.8262C21.0312 0.75 19.5762 2.20507 19.5762 4V9.693C19.5762 11.4879 21.0312 12.943 22.8262 12.943H28.5192C30.3141 12.943 31.7692 11.4879 31.7692 9.693V4C31.7692 2.20507 30.3141 0.75 28.5192 0.75Z" stroke="black" stroke-width="1.5"/>
<path d="M28.5192 17.8672H22.8262C21.0312 17.8672 19.5762 19.3223 19.5762 21.1172V26.8102C19.5762 28.6051 21.0312 30.0602 22.8262 30.0602H28.5192C30.3141 30.0602 31.7692 28.6051 31.7692 26.8102V21.1172C31.7692 19.3223 30.3141 17.8672 28.5192 17.8672Z" stroke="black" stroke-width="1.5"/>
</svg>
